<?xml version="1.0" standalone="no"?>
<!DOCTYPE svg PUBLIC "-//W3C//DTD SVG 20010904//EN"
 "http://www.w3.org/TR/2001/REC-SVG-20010904/DTD/svg10.dtd">
<svg version="1.0" xmlns="http://www.w3.org/2000/svg"
 width="260.000000pt" height="260.000000pt" viewBox="0 0 260.000000 260.000000"
 preserveAspectRatio="xMidYMid meet">
<metadata>
Created by potrace 1.11, written by Peter Selinger 2001-2013
</metadata>
<g transform="translate(0.000000,260.000000) scale(0.100000,-0.100000)"
fill="#000000" stroke="none">
<path d="M1590 2403 c-8 -3 -22 -7 -30 -9 -8 -3 -16 -5 -18 -4 -2 1 -18 -10
-36 -24 -19 -14 -37 -22 -41 -18 -5 4 -5 2 -2 -4 3 -6 -2 -18 -11 -27 -29 -27
-41 -45 -35 -51 3 -3 0 -12 -7 -21 -12 -15 -17 -102 -8 -140 10 -41 27 -74 53
-99 14 -14 22 -26 18 -26 -4 0 14 -12 41 -26 34 -18 68 -27 113 -29 55 -3 71
0 120 26 61 32 73 44 105 104 15 28 22 61 23 107 2 58 -2 75 -26 117 -16 27
-43 60 -61 72 -18 13 -36 27 -39 32 -3 5 -9 8 -13 8 -3 -1 -7 -1 -8 0 -32 10
-119 17 -138 12z"/>
<path d="M1384 1888 c-3 -5 -11 -7 -17 -6 -7 2 -30 -8 -52 -21 -22 -14 -43
-24 -48 -23 -4 1 -6 -2 -5 -7 2 -5 -1 -9 -5 -9 -5 -1 -15 -9 -22 -19 -7 -10
-19 -18 -27 -18 -7 -1 -12 -6 -11 -13 2 -7 -2 -12 -8 -12 -6 0 -16 -6 -23 -12
-7 -7 -32 -29 -56 -48 -24 -19 -49 -40 -55 -47 -7 -7 -15 -10 -17 -8 -5 5 -59
-77 -56 -85 1 -3 -5 -16 -12 -30 -15 -27 -16 -30 -26 -73 -5 -22 -4 -26 10
-21 10 4 16 1 16 -7 0 -7 3 -10 6 -6 4 3 22 0 40 -8 19 -8 34 -11 34 -7 0 3 5
1 12 -6 7 -7 25 -12 42 -12 16 0 26 3 23 7 -4 3 -3 11 2 17 5 6 14 28 21 49 6
21 14 36 16 34 3 -3 18 7 33 22 30 27 48 42 89 75 24 19 24 19 19 0 -4 -10 -9
-32 -12 -49 -5 -33 -11 -63 -25 -145 -9 -46 -8 -57 6 -70 13 -11 15 -11 9 -1
-5 9 2 7 18 -5 44 -33 63 -89 44 -134 -5 -14 -12 -36 -14 -50 -2 -13 -10 -28
-16 -32 -7 -4 -9 -8 -5 -8 4 0 3 -12 -3 -27 -6 -16 -13 -39 -16 -53 -2 -13 -9
-30 -15 -37 -6 -7 -8 -13 -5 -13 3 0 -2 -24 -13 -54 -10 -30 -16 -57 -13 -60
4 -3 2 -6 -3 -6 -5 0 -10 -8 -11 -17 -1 -10 -7 -31 -14 -48 -7 -16 -11 -36
-10 -42 1 -7 -3 -13 -10 -13 -6 0 -9 -6 -6 -14 3 -8 -1 -20 -8 -26 -8 -7 -12
-17 -8 -24 3 -6 3 -8 -1 -4 -5 4 -18 -2 -29 -13 -11 -10 -26 -18 -31 -18 -33
4 -45 -6 -71 -56 -16 -30 -32 -55 -35 -55 -4 0 -7 -6 -7 -12 0 -7 -19 -46 -42
-86 -53 -92 -55 -141 -7 -185 16 -15 38 -28 48 -28 10 -1 24 -2 31 -3 26 -4
74 28 92 60 10 19 22 34 27 34 4 0 7 3 6 8 -3 12 25 62 34 62 5 0 7 4 4 9 -3
4 3 16 14 26 11 10 17 22 14 26 -3 5 -1 9 4 9 6 0 13 11 16 25 4 14 11 25 16
25 6 0 10 5 10 11 0 6 16 37 36 69 28 45 43 90 65 187 16 70 31 140 34 156 16
103 40 188 46 171 4 -11 8 -15 8 -11 1 5 27 -25 60 -65 32 -40 68 -82 80 -92
11 -11 21 -23 21 -28 0 -4 8 -16 18 -26 40 -42 97 -115 94 -124 -1 -5 2 -7 7
-4 15 10 29 -29 35 -99 2 -23 6 -50 9 -60 3 -11 9 -51 13 -90 11 -107 11 -106
19 -164 5 -32 16 -62 30 -77 22 -23 105 -50 105 -33 0 5 6 9 13 9 8 0 24 11
37 25 21 22 24 34 22 98 -1 39 -3 92 -6 117 -6 55 -18 212 -21 260 -1 19 -8
46 -15 60 -8 14 -13 29 -12 33 1 5 -2 6 -7 3 -5 -4 -12 3 -16 14 -3 11 -11 20
-16 20 -5 0 -12 7 -16 16 -6 15 -20 34 -82 105 -18 21 -31 39 -28 39 4 0 -4
10 -16 23 -71 76 -84 99 -75 136 4 20 11 53 14 74 8 50 12 72 14 72 1 0 3 11
4 25 2 14 9 58 16 98 11 60 15 70 24 55 6 -10 11 -20 11 -23 6 -45 103 -146
212 -221 13 -9 20 -19 15 -24 -4 -5 -2 -5 4 -2 6 4 22 -5 34 -18 13 -14 29
-25 37 -25 7 0 13 -4 13 -9 0 -19 83 7 105 33 25 29 28 83 7 109 -7 8 -8 18
-4 22 4 5 2 6 -3 2 -6 -3 -28 10 -49 29 -21 19 -42 34 -48 34 -5 0 -6 5 -2 12
4 6 3 8 -3 5 -6 -4 -24 7 -42 23 -17 17 -33 30 -36 30 -4 0 -20 14 -38 31 -18
17 -26 28 -19 24 7 -3 1 11 -13 31 -14 21 -23 45 -20 53 3 9 3 12 -1 8 -9 -9
-45 64 -38 75 3 5 1 8 -5 8 -10 0 -27 39 -23 53 1 5 -2 6 -7 3 -5 -4 -15 7
-23 24 -7 16 -16 30 -21 30 -4 0 -17 9 -29 20 -12 11 -30 20 -39 20 -10 0 -20
4 -24 9 -3 6 -13 10 -23 9 -17 0 -65 5 -152 17 -76 11 -170 13 -176 3z"/>
<path d="M555 1500 c-4 -6 -11 -7 -17 -4 -7 4 -8 2 -4 -4 4 -7 3 -12 -2 -12
-7 0 -42 -99 -48 -138 -1 -8 -6 -21 -10 -30 -4 -9 -8 -20 -9 -24 -2 -5 -3 -9
-5 -10 -1 -2 -3 -11 -5 -21 -2 -10 -7 -26 -11 -35 -4 -9 -9 -25 -10 -35 -2 -9
-13 -45 -25 -80 -12 -34 -23 -73 -26 -87 -2 -13 -8 -29 -12 -35 -12 -15 -7
-71 8 -89 7 -8 25 -19 41 -24 27 -10 35 -6 39 21 0 4 8 21 16 37 9 17 13 30
11 30 -3 0 -1 12 5 28 6 15 13 36 15 46 5 26 45 148 53 161 3 6 7 16 8 23 2 6
5 18 6 25 2 6 7 26 12 42 4 17 10 35 14 40 3 6 6 15 6 20 1 15 27 98 35 110
13 20 4 39 -20 46 -38 11 -58 10 -65 -1z"/>
<path d="M682 1475 c3 -4 0 -26 -9 -48 -8 -23 -16 -50 -18 -61 -3 -10 -14 -45
-25 -77 -11 -33 -20 -63 -20 -68 0 -6 -4 -20 -9 -33 -5 -13 -9 -26 -10 -31 0
-4 -7 -23 -15 -42 -9 -20 -16 -39 -16 -43 -2 -17 -13 -58 -19 -67 -3 -5 -7
-18 -8 -27 -2 -9 -9 -36 -18 -60 -16 -47 -19 -79 -7 -76 9 2 63 -13 77 -21 6
-3 19 -7 30 -8 11 -2 29 -7 40 -12 21 -10 198 -65 278 -86 42 -12 48 -11 56 3
5 10 9 19 8 22 0 3 7 28 17 56 9 28 18 59 21 70 4 20 42 138 52 164 3 8 7 20
7 25 1 6 13 48 28 95 15 47 28 90 29 95 0 6 4 15 8 20 5 6 11 22 14 36 6 25 3
27 -51 45 -31 10 -61 19 -67 20 -5 1 -30 9 -55 17 -98 33 -195 61 -202 59 -5
-1 -8 3 -8 10 0 6 -3 9 -6 5 -3 -3 -16 -2 -28 2 -35 13 -81 23 -74 16z"/>
<path d="M1210 1286 c-5 -13 -12 -40 -15 -60 -4 -20 -10 -36 -14 -36 -4 0 -8
-6 -8 -12 0 -12 -57 -206 -70 -238 -3 -8 -7 -19 -8 -25 -4 -15 -46 -148 -52
-165 -13 -33 -13 -64 -1 -71 23 -15 84 -10 100 9 13 15 100 268 97 282 -1 3 5
21 13 40 8 19 15 37 16 40 0 3 3 12 5 20 3 8 8 24 10 35 3 11 13 45 21 75 19
66 12 96 -25 115 -40 21 -58 19 -69 -9z"/>
</g>
</svg>
